<svg width="20" height="20" viewBox="0 0 20 20" fill="none" xmlns="http://www.w3.org/2000/svg">
<path d="M8.57513 8.61667V15.3417C8.57513 16.9917 7.22513 18.3333 5.58346 18.3333C3.93346 18.3333 2.5918 16.9917 2.5918 15.3417C2.5918 13.7 3.93346 12.3583 5.58346 12.3583C6.27513 12.3583 6.90013 12.6 7.40846 12.9917V8.95L8.57513 8.61667Z" fill="#022940"/>
<path d="M17.4081 6.10001V13.7333C17.4081 15.3833 16.0665 16.725 14.4165 16.725C12.7748 16.725 11.4248 15.3833 11.4248 13.7333C11.4248 12.0917 12.7748 10.75 14.4165 10.75C15.1165 10.75 15.7415 10.9917 16.2498 11.3917V6.43334L17.4081 6.10001Z" fill="#022940"/>
<path opacity="0.4" d="M17.4082 4.31665V6.09999L7.4082 8.94999V5.62499C7.4082 4.39999 8.14987 3.44999 9.32487 3.13332L14.1415 1.81665C15.1165 1.54999 15.9415 1.64165 16.5249 2.09165C17.1165 2.53332 17.4082 3.28332 17.4082 4.31665Z" fill="#022940"/>
</svg>
