<svg width="28" height="28" viewBox="0 0 28 28" fill="none" xmlns="http://www.w3.org/2000/svg">
<path opacity="0.4" d="M19.8335 23.9166H8.16683C4.66683 23.9166 2.3335 22.1666 2.3335 18.0833V9.91659C2.3335 5.83325 4.66683 4.08325 8.16683 4.08325H19.8335C23.3335 4.08325 25.6668 5.83325 25.6668 9.91659V18.0833C25.6668 22.1666 23.3335 23.9166 19.8335 23.9166Z" fill="#022940"/>
<path d="M14.0001 15.015C13.0201 15.015 12.0284 14.7116 11.2701 14.0933L7.6184 11.1766C7.24507 10.8733 7.17507 10.325 7.4784 9.95163C7.78174 9.5783 8.33007 9.5083 8.70341 9.81164L12.3551 12.7283C13.2417 13.44 14.7467 13.44 15.6334 12.7283L19.2851 9.81164C19.6584 9.5083 20.2184 9.56663 20.5101 9.95163C20.8134 10.325 20.7551 10.885 20.3701 11.1766L16.7184 14.0933C15.9717 14.7116 14.9801 15.015 14.0001 15.015Z" fill="#022940"/>
</svg>
