<svg width="28" height="28" viewBox="0 0 28 28" fill="none" xmlns="http://www.w3.org/2000/svg">
<path d="M15.3768 13.8367C14.9102 13.8367 14.4902 13.58 14.2918 13.16L12.6002 9.78836L12.1102 10.6983C11.8418 11.2 11.3052 11.515 10.7335 11.515H9.88184C9.4035 11.515 9.00684 11.1183 9.00684 10.64C9.00684 10.1617 9.4035 9.765 9.88184 9.765H10.6285L11.5502 8.06164C11.7718 7.66498 12.2152 7.39666 12.6352 7.41999C13.0902 7.41999 13.4985 7.68833 13.7085 8.085L15.3768 11.4216L15.7735 10.6166C16.0418 10.08 16.5668 9.75332 17.1735 9.75332H18.1185C18.5968 9.75332 18.9935 10.15 18.9935 10.6283C18.9935 11.1067 18.5968 11.5033 18.1185 11.5033H17.2902L16.4618 13.1484C16.2518 13.58 15.8435 13.8367 15.3768 13.8367Z" fill="#022940"/>
<path opacity="0.4" d="M3.20812 21.7583C2.72979 21.7583 2.33312 21.3616 2.33312 20.8833V14.2333C2.27479 11.0716 3.45312 8.08496 5.64645 5.84496C7.83978 3.61663 10.7798 2.3916 13.9415 2.3916C20.4048 2.3916 25.6665 7.65325 25.6665 14.1166V20.7666C25.6665 21.2449 25.2698 21.6416 24.7915 21.6416C24.3131 21.6416 23.9165 21.2449 23.9165 20.7666V14.1166C23.9165 8.62159 19.4481 4.1416 13.9415 4.1416C11.2465 4.1416 8.74979 5.17995 6.89479 7.06995C5.02813 8.97161 4.03645 11.5033 4.08312 14.2099V20.8716C4.08312 21.3616 3.69812 21.7583 3.20812 21.7583Z" fill="#022940"/>
<path d="M6.92968 14.5249H6.77801C4.32801 14.5249 2.33301 16.5199 2.33301 18.9699V21.1632C2.33301 23.6132 4.32801 25.6082 6.77801 25.6082H6.92968C9.37968 25.6082 11.3747 23.6132 11.3747 21.1632V18.9699C11.3747 16.5199 9.37968 14.5249 6.92968 14.5249Z" fill="#022940"/>
<path d="M21.2212 14.5249H21.0695C18.6195 14.5249 16.6245 16.5199 16.6245 18.9699V21.1632C16.6245 23.6132 18.6195 25.6082 21.0695 25.6082H21.2212C23.6712 25.6082 25.6662 23.6132 25.6662 21.1632V18.9699C25.6662 16.5199 23.6712 14.5249 21.2212 14.5249Z" fill="#022940"/>
</svg>
