<svg width="50" height="50" viewBox="0 0 50 50" fill="none" xmlns="http://www.w3.org/2000/svg">
<path d="M32.7339 34.9436L15.0563 17.266C14.4523 16.662 14.4523 15.6603 15.0563 15.0563C15.6603 14.4523 16.662 14.4523 17.266 15.0563L34.9437 32.7339C35.5476 33.3379 35.5476 34.3397 34.9437 34.9436C34.3397 35.5476 33.3379 35.5476 32.7339 34.9436Z" fill="#022940"/>
<path d="M15.0563 34.9436C14.4524 34.3397 14.4524 33.3379 15.0563 32.7339L32.734 15.0563C33.338 14.4523 34.3397 14.4523 34.9437 15.0563C35.5477 15.6603 35.5477 16.662 34.9437 17.266L17.2661 34.9436C16.6621 35.5476 15.6603 35.5476 15.0563 34.9436Z" fill="#022940"/>
</svg>
