<svg width="20" height="20" viewBox="0 0 20 20" fill="none" xmlns="http://www.w3.org/2000/svg">
<path opacity="0.4" d="M17.0835 8.49166H14.6752C12.7002 8.49166 11.0918 6.88332 11.0918 4.90832V2.49999C11.0918 2.04166 10.7168 1.66666 10.2585 1.66666H6.72516C4.1585 1.66666 2.0835 3.33332 2.0835 6.30832V13.6917C2.0835 16.6667 4.1585 18.3333 6.72516 18.3333H13.2752C15.8418 18.3333 17.9168 16.6667 17.9168 13.6917V9.32499C17.9168 8.86666 17.5418 8.49166 17.0835 8.49166Z" fill="#022940"/>
<path d="M13.1667 1.84167C12.8251 1.5 12.2334 1.73334 12.2334 2.20834V5.11667C12.2334 6.33334 13.2667 7.34167 14.5251 7.34167C15.3167 7.35 16.4167 7.35 17.3584 7.35C17.8334 7.35 18.0834 6.79167 17.7501 6.45834C16.5501 5.25 14.4001 3.075 13.1667 1.84167Z" fill="#022940"/>
<path d="M10.2334 12.2667C9.9917 12.025 9.5917 12.025 9.35003 12.2667L8.75003 12.8667V9.375C8.75003 9.03333 8.4667 8.75 8.12503 8.75C7.78337 8.75 7.50003 9.03333 7.50003 9.375V12.8667L6.90003 12.2667C6.65837 12.025 6.25837 12.025 6.0167 12.2667C5.77503 12.5083 5.77503 12.9083 6.0167 13.15L7.68337 14.8167C7.6917 14.825 7.70003 14.825 7.70003 14.8333C7.75003 14.8833 7.8167 14.925 7.88337 14.9583C7.9667 14.9833 8.0417 15 8.12503 15C8.20837 15 8.28337 14.9833 8.35837 14.95C8.43337 14.9167 8.50003 14.875 8.5667 14.8167L10.2334 13.15C10.475 12.9083 10.475 12.5083 10.2334 12.2667Z" fill="#022940"/>
</svg>
