<svg width="28" height="28" viewBox="0 0 28 28" fill="none" xmlns="http://www.w3.org/2000/svg">
<path opacity="0.4" d="M13.9998 25.6666C19.5861 25.6666 24.1148 21.138 24.1148 15.5516C24.1148 9.96529 19.5861 5.43665 13.9998 5.43665C8.41341 5.43665 3.88477 9.96529 3.88477 15.5516C3.88477 21.138 8.41341 25.6666 13.9998 25.6666Z" fill="#022940"/>
<path d="M14 16.0417C13.5217 16.0417 13.125 15.645 13.125 15.1667V9.33337C13.125 8.85504 13.5217 8.45837 14 8.45837C14.4783 8.45837 14.875 8.85504 14.875 9.33337V15.1667C14.875 15.645 14.4783 16.0417 14 16.0417Z" fill="#022940"/>
<path d="M17.3719 4.02504H10.6286C10.1619 4.02504 9.78857 3.65171 9.78857 3.18504C9.78857 2.71837 10.1619 2.33337 10.6286 2.33337H17.3719C17.8386 2.33337 18.2119 2.70671 18.2119 3.17337C18.2119 3.64004 17.8386 4.02504 17.3719 4.02504Z" fill="#022940"/>
</svg>
