<svg width="28" height="28" viewBox="0 0 28 28" fill="none" xmlns="http://www.w3.org/2000/svg">
<path opacity="0.4" d="M18.8885 2.33337H9.12355C4.87688 2.33337 2.34521 4.86504 2.34521 9.1117V18.8767C2.34521 23.1234 4.87688 25.655 9.12355 25.655H18.8885C23.1352 25.655 25.6669 23.1234 25.6669 18.8767V9.1117C25.6669 4.86504 23.1352 2.33337 18.8885 2.33337Z" fill="#022940"/>
<path d="M18.2235 8.28325L15.5518 7.39664C14.8752 7.1633 14.1868 7.25658 13.6618 7.62991C13.1368 8.00325 12.8452 8.63328 12.8452 9.34495V10.0566V14.9333C12.3785 14.6766 11.8535 14.525 11.2818 14.525C9.48512 14.525 8.01514 15.9949 8.01514 17.7916C8.01514 19.5883 9.48512 21.0583 11.2818 21.0583C13.0785 21.0583 14.5484 19.5883 14.5484 17.7916V12.4833C14.5601 12.495 14.5835 12.4949 14.5952 12.5066L17.2668 13.3933C17.5118 13.4749 17.7685 13.5216 18.0135 13.5216C18.4335 13.5216 18.8301 13.405 19.1568 13.16C19.6818 12.7866 19.9735 12.1566 19.9735 11.4449V10.7333C19.9735 9.67162 19.2268 8.62158 18.2235 8.28325ZM11.2818 19.355C10.4185 19.355 9.73017 18.655 9.73017 17.8033C9.73017 16.94 10.4301 16.2399 11.2818 16.2399C12.1451 16.2399 12.8452 16.94 12.8452 17.8033C12.8452 18.655 12.1451 19.355 11.2818 19.355Z" fill="#022940"/>
</svg>
