<svg width="28" height="28" viewBox="0 0 28 28" fill="none" xmlns="http://www.w3.org/2000/svg">
<path opacity="0.4" d="M14.0002 25.4088C20.4435 25.4088 25.6668 20.2379 25.6668 13.8593C25.6668 7.4807 20.4435 2.30981 14.0002 2.30981C7.55684 2.30981 2.3335 7.4807 2.3335 13.8593C2.3335 20.2379 7.55684 25.4088 14.0002 25.4088Z" fill="#022940"/>
<path d="M18.3284 18.3983C18.1767 18.3983 18.0251 18.3636 17.8851 18.2712L14.2684 16.1346C13.3701 15.6033 12.7051 14.4368 12.7051 13.4089V8.67359C12.7051 8.20006 13.1017 7.80737 13.5801 7.80737C14.0584 7.80737 14.4551 8.20006 14.4551 8.67359V13.4089C14.4551 13.8247 14.8051 14.4368 15.1667 14.6447L18.7834 16.7813C19.2034 17.0239 19.3317 17.5551 19.0867 17.9709C18.9117 18.2481 18.6201 18.3983 18.3284 18.3983Z" fill="#022940"/>
</svg>
