<svg width="28" height="28" viewBox="0 0 28 28" fill="none" xmlns="http://www.w3.org/2000/svg">
<path d="M19.5408 4.11227V2.31055C19.5408 1.83702 19.1441 1.44434 18.6658 1.44434C18.1875 1.44434 17.7908 1.83702 17.7908 2.31055V4.04297H10.2075V2.31055C10.2075 1.83702 9.81079 1.44434 9.33246 1.44434C8.85413 1.44434 8.45746 1.83702 8.45746 2.31055V4.11227C5.30746 4.401 3.77913 6.26047 3.54579 9.0208C3.52246 9.35574 3.80246 9.63293 4.12913 9.63293H23.8691C24.2075 9.63293 24.4875 9.34419 24.4525 9.0208C24.2191 6.26047 22.6908 4.401 19.5408 4.11227Z" fill="#022940"/>
<path opacity="0.4" d="M23.3333 11.3652C23.975 11.3652 24.5 11.885 24.5 12.5202V19.6347C24.5 23.0995 22.75 25.4094 18.6667 25.4094H9.33333C5.25 25.4094 3.5 23.0995 3.5 19.6347V12.5202C3.5 11.885 4.025 11.3652 4.66667 11.3652H23.3333Z" fill="#022940"/>
<path d="M9.91667 17.3233C9.61333 17.3233 9.31 17.1962 9.08833 16.9883C8.87833 16.7689 8.75 16.4686 8.75 16.1683C8.75 15.868 8.87833 15.5678 9.08833 15.3483C9.415 15.0249 9.92833 14.921 10.36 15.1058C10.5117 15.1635 10.64 15.2444 10.745 15.3483C10.955 15.5678 11.0833 15.868 11.0833 16.1683C11.0833 16.4686 10.955 16.7689 10.745 16.9883C10.5233 17.1962 10.22 17.3233 9.91667 17.3233Z" fill="#022940"/>
<path d="M14.0011 17.3233C13.6978 17.3233 13.3945 17.1962 13.1728 16.9883C12.9628 16.7689 12.8345 16.4686 12.8345 16.1683C12.8345 15.868 12.9628 15.5678 13.1728 15.3483C13.2778 15.2444 13.4061 15.1635 13.5578 15.1058C13.9895 14.921 14.5028 15.0249 14.8295 15.3483C15.0395 15.5678 15.1678 15.868 15.1678 16.1683C15.1678 16.4686 15.0395 16.7689 14.8295 16.9883C14.7711 17.0345 14.7128 17.0807 14.6545 17.1269C14.5845 17.1731 14.5145 17.2078 14.4445 17.2309C14.3745 17.2655 14.3045 17.2886 14.2345 17.3002C14.1528 17.3117 14.0828 17.3233 14.0011 17.3233Z" fill="#022940"/>
<path d="M18.0822 17.3236C17.7789 17.3236 17.4755 17.1965 17.2539 16.9886C17.0439 16.7692 16.9155 16.4689 16.9155 16.1686C16.9155 15.8683 17.0439 15.5681 17.2539 15.3486C17.3705 15.2447 17.4872 15.1638 17.6389 15.1061C17.8489 15.0137 18.0822 14.9906 18.3155 15.0368C18.3855 15.0483 18.4555 15.0714 18.5255 15.1061C18.5955 15.1292 18.6655 15.1638 18.7355 15.21C18.7939 15.2562 18.8522 15.3024 18.9105 15.3486C19.1205 15.5681 19.2489 15.8683 19.2489 16.1686C19.2489 16.4689 19.1205 16.7692 18.9105 16.9886C18.8522 17.0348 18.7939 17.081 18.7355 17.1272C18.6655 17.1734 18.5955 17.2081 18.5255 17.2312C18.4555 17.2659 18.3855 17.2889 18.3155 17.3005C18.2339 17.312 18.1522 17.3236 18.0822 17.3236Z" fill="#022940"/>
<path d="M9.91667 21.3666C9.765 21.3666 9.61333 21.3319 9.47333 21.2742C9.32167 21.2164 9.205 21.1356 9.08833 21.0316C8.87833 20.8122 8.75 20.5119 8.75 20.2116C8.75 19.9113 8.87833 19.611 9.08833 19.3916C9.205 19.2877 9.32167 19.2068 9.47333 19.149C9.68333 19.0566 9.91667 19.0335 10.15 19.0797C10.22 19.0913 10.29 19.1144 10.36 19.149C10.43 19.1721 10.5 19.2068 10.57 19.253C10.6283 19.2992 10.6867 19.3454 10.745 19.3916C10.955 19.611 11.0833 19.9113 11.0833 20.2116C11.0833 20.5119 10.955 20.8122 10.745 21.0316C10.6867 21.0778 10.6283 21.1355 10.57 21.1702C10.5 21.2164 10.43 21.2511 10.36 21.2742C10.29 21.3088 10.22 21.3319 10.15 21.3435C10.0683 21.355 9.99833 21.3666 9.91667 21.3666Z" fill="#022940"/>
<path d="M14.0011 21.3665C13.6978 21.3665 13.3945 21.2394 13.1728 21.0316C12.9628 20.8121 12.8345 20.5118 12.8345 20.2115C12.8345 19.9113 12.9628 19.611 13.1728 19.3915C13.6045 18.9642 14.3978 18.9642 14.8295 19.3915C15.0395 19.611 15.1678 19.9113 15.1678 20.2115C15.1678 20.5118 15.0395 20.8121 14.8295 21.0316C14.6078 21.2394 14.3045 21.3665 14.0011 21.3665Z" fill="#022940"/>
<path d="M18.0822 21.3665C17.7789 21.3665 17.4755 21.2394 17.2539 21.0316C17.0439 20.8121 16.9155 20.5118 16.9155 20.2115C16.9155 19.9113 17.0439 19.611 17.2539 19.3915C17.6855 18.9642 18.4789 18.9642 18.9105 19.3915C19.1205 19.611 19.2489 19.9113 19.2489 20.2115C19.2489 20.5118 19.1205 20.8121 18.9105 21.0316C18.6889 21.2394 18.3855 21.3665 18.0822 21.3665Z" fill="#022940"/>
</svg>
