<svg width="28" height="28" viewBox="0 0 28 28" fill="none" xmlns="http://www.w3.org/2000/svg">
<path opacity="0.4" d="M18.8885 2.30981H9.11183C4.86516 2.30981 2.3335 4.81606 2.3335 9.02007V18.687C2.3335 22.9026 4.86516 25.4088 9.11183 25.4088H18.8768C23.1235 25.4088 25.6552 22.9026 25.6552 18.6986V9.02007C25.6668 4.81606 23.1352 2.30981 18.8885 2.30981Z" fill="#022940"/>
<path d="M21.9569 12.2195C22.4236 12.2195 22.8086 11.8383 22.8086 11.3764C22.8086 10.9144 22.4236 10.5332 21.9569 10.5332H17.7452L18.2002 6.49092C18.2469 6.02894 17.9202 5.61316 17.4419 5.55541C16.9752 5.50921 16.5552 5.8326 16.4969 6.30613L16.0186 10.5332H12.7169L13.1719 6.49092C13.2186 6.02894 12.8919 5.61316 12.4136 5.55541C11.9469 5.50921 11.5269 5.8326 11.4686 6.30613L11.0019 10.5332H6.88356C6.41689 10.5332 6.03189 10.9144 6.03189 11.3764C6.03189 11.8383 6.41689 12.2195 6.88356 12.2195H10.8152L10.4419 15.5111H6.04356C5.57689 15.5111 5.19189 15.8922 5.19189 16.3542C5.19189 16.8162 5.57689 17.1973 6.04356 17.1973H10.2552L9.80023 21.2396C9.75356 21.7016 10.0802 22.1174 10.5586 22.1751C10.5936 22.1751 10.6169 22.1751 10.6519 22.1751C11.0836 22.1751 11.4452 21.8518 11.5036 21.4244L11.9819 17.1973H15.2952L14.8402 21.2396C14.7936 21.7016 15.1202 22.1174 15.5986 22.1751C15.6336 22.1751 15.6569 22.1751 15.6919 22.1751C16.1236 22.1751 16.4852 21.8518 16.5436 21.4244L17.0219 17.1973H21.1402C21.6069 17.1973 21.9919 16.8162 21.9919 16.3542C21.9919 15.8922 21.6069 15.5111 21.1402 15.5111H17.2086L17.5819 12.2195H21.9569ZM15.4702 15.4995H12.1569L12.5302 12.2079H15.8436L15.4702 15.4995Z" fill="#022940"/>
</svg>
