<svg width="191" height="63" viewBox="0 0 191 63" fill="none" xmlns="http://www.w3.org/2000/svg">
<path d="M174.008 60.6182H34.6499V1.22302H174.008C183.294 1.22302 190.827 8.7527 190.827 18.0343V43.7901C190.844 53.0885 183.311 60.6182 174.008 60.6182Z" fill="#F8D701"/>
<path d="M31.5152 63C48.9206 63 63.0305 48.897 63.0305 31.5C63.0305 14.103 48.9206 0 31.5152 0C14.1098 0 0 14.103 0 31.5C0 48.897 14.1098 63 31.5152 63Z" fill="#FAFAFA"/>
<path d="M34.6836 19.9107C34.6836 19.3379 35.1555 18.8663 35.7285 18.8663H41.4923C41.1046 13.9139 36.9756 10.0059 31.9197 10.0059C26.8638 10.0059 22.7179 13.9139 22.3472 18.8663H28.448C28.9873 18.8663 29.4255 19.3043 29.4255 19.8433V19.9612C29.4255 20.5002 28.9873 20.9382 28.448 20.9382H22.3303V22.6227H28.3974C28.9704 22.6227 29.4423 23.0944 29.4423 23.6671C29.4423 24.2398 28.9704 24.7115 28.3974 24.7115H22.3303V26.396H28.4985C29.021 26.396 29.4255 26.8171 29.4255 27.3224V27.5246C29.4255 28.0468 29.0041 28.451 28.4985 28.451H22.3303V30.1355H28.5491C29.0378 30.1355 29.4255 30.523 29.4255 31.0115V31.3147C29.4255 31.8032 29.0378 32.1906 28.5491 32.1906H22.3303V34.1278C22.3303 39.4339 26.6279 43.7294 31.9366 43.7294C37.2453 43.7294 41.5428 39.4339 41.5428 34.1278V32.1906H35.6611C35.1387 32.1906 34.7173 31.7695 34.7173 31.2473V31.0789C34.7173 30.5567 35.1387 30.1355 35.6611 30.1355H41.5428V28.451H35.6274C35.1218 28.451 34.7173 28.0468 34.7173 27.5414V27.3056C34.7173 26.8002 35.1218 26.396 35.6274 26.396H41.5428V24.7115H35.7285C35.1724 24.7115 34.7173 24.2567 34.7173 23.7008V23.6502C34.7173 23.0944 35.1724 22.6396 35.7285 22.6396H41.5428V20.9551H35.7454C35.1555 20.9382 34.6836 20.4834 34.6836 19.9107Z" fill="#022940"/>
<path d="M46.0254 26.5981H42.7896C42.3346 26.5981 41.947 26.9687 41.947 27.4404C41.947 27.912 42.3178 28.2826 42.7896 28.2826H43.5143V34.3637C43.5143 40.7647 38.3067 45.9698 31.9026 45.9698C25.4984 45.9698 20.2908 40.7647 20.2908 34.3637V28.2826H20.9481C21.4031 28.2826 21.7907 27.912 21.7907 27.4404C21.7907 26.9687 21.42 26.5981 20.9481 26.5981H17.7123C17.2572 26.5981 16.8696 26.9687 16.8696 27.4404C16.8696 27.912 17.2404 28.2826 17.7123 28.2826H18.6223V34.3637C18.6223 41.4048 24.1333 47.1826 31.0599 47.6206V53.8195H24.6894C24.2344 53.8195 23.8468 54.1901 23.8468 54.6618C23.8468 55.1334 24.2176 55.504 24.6894 55.504H39.1831C39.6381 55.504 40.0257 55.1334 40.0257 54.6618C40.0257 54.1901 39.655 53.8195 39.1831 53.8195H32.7452V47.6206C39.6887 47.1826 45.1828 41.4048 45.1828 34.3637V28.2826H46.0086C46.4636 28.2826 46.8512 27.912 46.8512 27.4404C46.8512 26.9687 46.4805 26.5981 46.0254 26.5981Z" fill="#022940"/>
<path d="M69.7632 34.6486V15.014H77.8928C79.6181 15.014 80.9214 15.5484 81.8028 16.6173C82.703 17.6863 83.153 19.1584 83.153 21.0337C83.153 22.9091 82.703 24.3812 81.8028 25.4501C80.9214 26.519 79.6181 27.0535 77.8928 27.0535H73.2795V34.6486H69.7632ZM73.2795 23.9874H77.5271C78.1272 23.9874 78.596 23.828 78.9336 23.5092C79.2899 23.1716 79.468 22.6371 79.468 21.9058V20.1617C79.468 19.4303 79.2899 18.9052 78.9336 18.5864C78.596 18.2489 78.1272 18.0801 77.5271 18.0801H73.2795V23.9874Z" fill="#022940"/>
<path d="M93.1394 34.9861C91.9579 34.9861 90.889 34.7986 89.9326 34.4235C88.9949 34.0297 88.1885 33.4296 87.5134 32.6232C86.857 31.7981 86.3413 30.7479 85.9662 29.4727C85.6099 28.1787 85.4318 26.6316 85.4318 24.8313C85.4318 23.031 85.6099 21.4932 85.9662 20.218C86.3413 18.924 86.857 17.8738 87.5134 17.0674C88.1885 16.2423 88.9949 15.6422 89.9326 15.2671C90.889 14.8733 91.9579 14.6764 93.1394 14.6764C94.3208 14.6764 95.3804 14.8733 96.318 15.2671C97.2744 15.6422 98.0808 16.2423 98.7372 17.0674C99.4123 17.8738 99.928 18.924 100.284 20.218C100.659 21.4932 100.847 23.031 100.847 24.8313C100.847 26.6316 100.659 28.1787 100.284 29.4727C99.928 30.7479 99.4123 31.7981 98.7372 32.6232C98.0808 33.4296 97.2744 34.0297 96.318 34.4235C95.3804 34.7986 94.3208 34.9861 93.1394 34.9861ZM93.1394 31.8918C94.4146 31.8918 95.3991 31.498 96.093 30.7104C96.7869 29.904 97.1338 28.7601 97.1338 27.2786V22.384C97.1338 20.9025 96.7869 19.7679 96.093 18.9803C95.3991 18.1739 94.4146 17.7707 93.1394 17.7707C91.8641 17.7707 90.8796 18.1739 90.1857 18.9803C89.4918 19.7679 89.1449 20.9025 89.1449 22.384V27.2786C89.1449 28.7601 89.4918 29.904 90.1857 30.7104C90.8796 31.498 91.8641 31.8918 93.1394 31.8918Z" fill="#022940"/>
<path d="M104.211 15.014H110.906C112.088 15.014 113.138 15.2015 114.057 15.5765C114.994 15.9329 115.782 16.5142 116.42 17.3206C117.076 18.1082 117.573 19.1209 117.911 20.3586C118.248 21.5963 118.417 23.0872 118.417 24.8313C118.417 26.5753 118.248 28.0662 117.911 29.3039C117.573 30.5416 117.076 31.5637 116.42 32.3701C115.782 33.1577 114.994 33.739 114.057 34.1141C113.138 34.4704 112.088 34.6486 110.906 34.6486H104.211V15.014ZM110.906 31.5824C112.106 31.5824 113.035 31.2167 113.691 30.4854C114.347 29.7352 114.676 28.6194 114.676 27.1379V22.5246C114.676 21.0431 114.347 19.9367 113.691 19.2053C113.035 18.4552 112.106 18.0801 110.906 18.0801H107.728V31.5824H110.906Z" fill="#022940"/>
<path d="M128.712 34.9861C127.55 34.9861 126.5 34.808 125.562 34.4517C124.624 34.0766 123.818 33.4859 123.143 32.6795C122.486 31.8731 121.971 30.8323 121.596 29.5571C121.239 28.2819 121.061 26.7441 121.061 24.9438C121.061 23.1247 121.239 21.5682 121.596 20.2742C121.971 18.9803 122.486 17.9207 123.143 17.0956C123.818 16.2704 124.624 15.6609 125.562 15.2671C126.5 14.8733 127.55 14.6764 128.712 14.6764C129.575 14.6764 130.344 14.7702 131.019 14.9577C131.694 15.1452 132.294 15.4265 132.819 15.8016C133.344 16.1579 133.804 16.6173 134.198 17.1799C134.592 17.7425 134.948 18.3989 135.267 19.149L132.285 20.7243C131.985 19.6554 131.563 18.8865 131.019 18.4177C130.475 17.9488 129.706 17.7144 128.712 17.7144C127.475 17.7144 126.509 18.1176 125.815 18.924C125.14 19.7304 124.802 20.8837 124.802 22.384V27.2786C124.802 28.7788 125.14 29.9321 125.815 30.7385C126.509 31.5449 127.475 31.9481 128.712 31.9481C129.706 31.9481 130.494 31.6949 131.075 31.1886C131.675 30.6823 132.144 29.8665 132.482 28.7413L135.351 30.4291C135.032 31.1605 134.667 31.8075 134.254 32.3701C133.841 32.9327 133.363 33.4109 132.819 33.8047C132.294 34.1797 131.694 34.4704 131.019 34.6767C130.344 34.883 129.575 34.9861 128.712 34.9861Z" fill="#022940"/>
<path d="M148.916 34.6486L147.537 29.5289H141.208L139.83 34.6486H136.454L142.193 15.014H146.637L152.376 34.6486H148.916ZM145.174 21.315L144.556 18.1926H144.162L143.543 21.315L142.052 26.6878H146.693L145.174 21.315Z" fill="#022940"/>
<path d="M160.518 34.9861C159.055 34.9861 157.761 34.7236 156.636 34.1985C155.529 33.6547 154.573 32.8576 153.767 31.8075L156.073 29.5852C156.636 30.3541 157.292 30.9448 158.042 31.3574C158.792 31.7512 159.636 31.9481 160.574 31.9481C162.674 31.9481 163.725 30.9917 163.725 29.0789C163.725 28.2912 163.537 27.6911 163.162 27.2786C162.787 26.866 162.168 26.5659 161.305 26.3784L159.589 26.0408C157.808 25.6658 156.495 25.0282 155.651 24.128C154.807 23.2279 154.385 21.9714 154.385 20.3586C154.385 18.4833 154.939 17.0674 156.045 16.111C157.17 15.1546 158.764 14.6764 160.827 14.6764C162.234 14.6764 163.434 14.9108 164.428 15.3796C165.44 15.8297 166.303 16.5423 167.016 17.5175L164.709 19.6835C164.222 19.0271 163.668 18.5396 163.049 18.2207C162.431 17.8832 161.671 17.7144 160.771 17.7144C159.777 17.7144 159.046 17.9113 158.577 18.3051C158.108 18.699 157.874 19.3366 157.874 20.218C157.874 20.9493 158.052 21.5119 158.408 21.9058C158.783 22.2996 159.383 22.5903 160.208 22.7778L161.924 23.1435C162.881 23.3498 163.687 23.6029 164.343 23.903C165.019 24.203 165.562 24.5781 165.975 25.0282C166.406 25.4782 166.716 26.0127 166.903 26.6316C167.11 27.2317 167.213 27.9443 167.213 28.7694C167.213 30.7948 166.631 32.3419 165.469 33.4109C164.325 34.461 162.674 34.9861 160.518 34.9861Z" fill="#022940"/>
<path d="M177.119 18.0801V34.6486H173.603V18.0801H168.68V15.014H182.07V18.0801H177.119Z" fill="#022940"/>
<path d="M77.5488 43.9347C77.5045 43.7705 77.4394 43.6259 77.3534 43.5008C77.2674 43.3731 77.1619 43.265 77.0368 43.1764C76.9117 43.0878 76.7684 43.0213 76.6068 42.977C76.4452 42.9301 76.268 42.9066 76.0752 42.9066C75.6869 42.9066 75.3508 43.0005 75.0667 43.1881C74.7853 43.3757 74.5677 43.6493 74.4139 44.0089C74.2602 44.366 74.1833 44.7998 74.1833 45.3106C74.1833 45.824 74.2576 46.2617 74.4061 46.624C74.5547 46.9862 74.7696 47.2624 75.0511 47.4526C75.3325 47.6429 75.6739 47.738 76.0752 47.738C76.4296 47.738 76.7293 47.6807 76.9742 47.566C77.2218 47.4487 77.4094 47.2833 77.5371 47.0696C77.6648 46.8559 77.7286 46.6044 77.7286 46.3152L78.0883 46.3582H76.1417V44.9471H79.5932V46.0064C79.5932 46.723 79.4407 47.3367 79.1358 47.8474C78.8336 48.3582 78.4166 48.7504 77.885 49.024C77.356 49.2976 76.7475 49.4344 76.0596 49.4344C75.296 49.4344 74.625 49.269 74.0465 48.938C73.468 48.6071 73.0172 48.1354 72.694 47.523C72.3709 46.908 72.2094 46.1784 72.2094 45.334C72.2094 44.6774 72.3071 44.0949 72.5025 43.5868C72.698 43.076 72.9703 42.6435 73.3195 42.289C73.6713 41.9346 74.0778 41.6662 74.539 41.4838C75.0029 41.3014 75.5019 41.2102 76.0361 41.2102C76.5 41.2102 76.9312 41.2767 77.3299 41.4096C77.7313 41.5425 78.0857 41.7301 78.3932 41.9724C78.7033 42.2148 78.9547 42.5027 79.1476 42.8363C79.3404 43.1698 79.4603 43.536 79.5072 43.9347H77.5488Z" fill="#022940"/>
<path d="M85.6869 49.325V41.3197H91.2687V42.891H87.6218V44.5327H90.9834V46.108H87.6218V47.7536H91.2687V49.325H85.6869Z" fill="#022940"/>
<path d="M104.247 41.3197V49.325H102.605L99.4194 44.7047H99.3686V49.325H97.4338V41.3197H99.0989L102.249 45.9321H102.316V41.3197H104.247Z" fill="#022940"/>
<path d="M110.417 49.325V41.3197H115.999V42.891H112.352V44.5327H115.713V46.108H112.352V47.7536H115.999V49.325H110.417Z" fill="#022940"/>
<path d="M122.164 49.325V41.3197H125.471C126.07 41.3197 126.587 41.4278 127.022 41.6441C127.46 41.8578 127.798 42.1653 128.035 42.5666C128.272 42.9653 128.39 43.4383 128.39 43.9855C128.39 44.5405 128.269 45.0122 128.027 45.4005C127.785 45.7862 127.441 46.0806 126.995 46.2839C126.549 46.4845 126.022 46.5849 125.412 46.5849H123.321V45.0604H125.052C125.344 45.0604 125.588 45.0226 125.783 44.9471C125.981 44.8689 126.131 44.7516 126.233 44.5953C126.334 44.4363 126.385 44.2331 126.385 43.9855C126.385 43.7379 126.334 43.5334 126.233 43.3718C126.131 43.2076 125.981 43.0852 125.783 43.0044C125.585 42.921 125.342 42.8793 125.052 42.8793H124.099V49.325H122.164ZM126.671 45.6663L128.664 49.325H126.553L124.599 45.6663H126.671Z" fill="#022940"/>
<path d="M136.137 49.325H134.057L136.758 41.3197H139.334L142.035 49.325H139.956L138.075 43.3366H138.013L136.137 49.325ZM135.859 46.1744H140.206V47.6442H135.859V46.1744Z" fill="#022940"/>
<path d="M146.589 42.891V41.3197H153.355V42.891H150.928V49.325H149.02V42.891H146.589Z" fill="#022940"/>
<path d="M166.444 45.3223C166.444 46.2031 166.274 46.9497 165.935 47.5621C165.597 48.1745 165.138 48.6396 164.559 48.9575C163.984 49.2755 163.337 49.4344 162.621 49.4344C161.901 49.4344 161.254 49.2742 160.678 48.9536C160.102 48.6331 159.645 48.168 159.306 47.5582C158.97 46.9458 158.802 46.2005 158.802 45.3223C158.802 44.4415 158.97 43.6949 159.306 43.0825C159.645 42.4702 160.102 42.005 160.678 41.6871C161.254 41.3692 161.901 41.2102 162.621 41.2102C163.337 41.2102 163.984 41.3692 164.559 41.6871C165.138 42.005 165.597 42.4702 165.935 43.0825C166.274 43.6949 166.444 44.4415 166.444 45.3223ZM164.466 45.3223C164.466 44.8011 164.391 44.3607 164.243 44.0011C164.097 43.6415 163.886 43.3692 163.61 43.1842C163.336 42.9992 163.006 42.9066 162.621 42.9066C162.238 42.9066 161.908 42.9992 161.632 43.1842C161.356 43.3692 161.143 43.6415 160.995 44.0011C160.849 44.3607 160.776 44.8011 160.776 45.3223C160.776 45.8435 160.849 46.2839 160.995 46.6435C161.143 47.0031 161.356 47.2754 161.632 47.4605C161.908 47.6455 162.238 47.738 162.621 47.738C163.006 47.738 163.336 47.6455 163.61 47.4605C163.886 47.2754 164.097 47.0031 164.243 46.6435C164.391 46.2839 164.466 45.8435 164.466 45.3223Z" fill="#022940"/>
<path d="M172.526 49.325V41.3197H175.833C176.433 41.3197 176.95 41.4278 177.385 41.6441C177.823 41.8578 178.16 42.1653 178.398 42.5666C178.635 42.9653 178.753 43.4383 178.753 43.9855C178.753 44.5405 178.632 45.0122 178.39 45.4005C178.147 45.7862 177.803 46.0806 177.358 46.2839C176.912 46.4845 176.385 46.5849 175.775 46.5849H173.684V45.0604H175.415C175.707 45.0604 175.951 45.0226 176.146 44.9471C176.344 44.8689 176.494 44.7516 176.596 44.5953C176.697 44.4363 176.748 44.2331 176.748 43.9855C176.748 43.7379 176.697 43.5334 176.596 43.3718C176.494 43.2076 176.344 43.0852 176.146 43.0044C175.948 42.921 175.704 42.8793 175.415 42.8793H174.461V49.325H172.526ZM177.033 45.6663L179.027 49.325H176.916L174.962 45.6663H177.033Z" fill="#022940"/>
</svg>
