<svg width="28" height="28" viewBox="0 0 28 28" fill="none" xmlns="http://www.w3.org/2000/svg">
<path opacity="0.4" d="M21.5835 11.6667V14.1984C21.5835 14.8167 21.8285 15.4117 22.2718 15.855L23.2285 16.8117C23.6718 17.255 23.9168 17.85 23.9168 18.4684V19.8334C23.9168 23.3334 22.1318 25.6667 18.0835 25.6667H9.91683C5.7985 25.6667 4.0835 23.3334 4.0835 19.8334V8.16671C4.0835 4.76004 5.71683 2.45004 9.6135 2.34504C9.70683 2.33337 9.81183 2.33337 9.91683 2.33337H18.0835C18.1768 2.33337 18.2702 2.33337 18.3635 2.34504C22.2135 2.43837 23.9168 4.74837 23.9168 8.16671V9.33337C23.9168 9.97504 23.3918 10.5 22.7502 10.5C22.1085 10.5 21.5835 11.025 21.5835 11.6667Z" fill="#022940"/>
<path d="M11.3633 2.33337L11.3049 5.78671C11.2933 6.26504 10.9083 6.65004 10.4299 6.65004H10.4183C9.92828 6.63837 9.54328 6.24171 9.55495 5.75171L9.61328 2.34504C9.70661 2.33337 9.81161 2.33337 9.91661 2.33337H11.3633Z" fill="#022940"/>
<path d="M14.8633 2.33337L14.8049 5.77504C14.7933 6.24171 14.4083 6.62671 13.9299 6.62671H13.9183C13.4283 6.61504 13.0433 6.21837 13.0549 5.74004L13.1133 2.33337H14.8633Z" fill="#022940"/>
<path d="M18.3633 2.34504L18.3049 5.70504C18.2933 6.18337 17.9083 6.56837 17.4299 6.56837H17.4183C16.9283 6.55671 16.5433 6.16004 16.5549 5.68171L16.6133 2.33337H18.0833C18.1766 2.33337 18.2699 2.33337 18.3633 2.34504Z" fill="#022940"/>
<path d="M18.6901 25.6434C18.4917 25.655 18.2934 25.6667 18.0951 25.6667H9.92839C9.71839 25.6667 9.52006 25.6667 9.33339 25.6434L9.31006 22.1667C9.31006 20.8834 10.3484 19.8334 11.6434 19.8334H16.3217C17.6051 19.8334 18.6434 20.8717 18.6551 22.155L18.6901 25.6434Z" fill="#022940"/>
</svg>
