<svg width="24" height="24" viewBox="0 0 24 24" fill="none" xmlns="http://www.w3.org/2000/svg">
<path opacity="0.4" d="M9 7.2V16.79C9 20 11 22 14.2 22H16.79C19.99 22 21.99 20 21.99 16.8V7.2C22 4 20 2 16.8 2H14.2C11 2 9 4 9 7.2Z" fill="#fff"/>
<path d="M12.4304 8.12002L15.7804 11.47C16.0704 11.76 16.0704 12.24 15.7804 12.53L12.4304 15.88C12.1404 16.17 11.6604 16.17 11.3704 15.88C11.0804 15.59 11.0804 15.11 11.3704 14.82L13.4404 12.75H2.75037C2.34037 12.75 2.00037 12.41 2.00037 12C2.00037 11.59 2.34037 11.25 2.75037 11.25H13.4404L11.3704 9.18002C11.2204 9.03002 11.1504 8.84002 11.1504 8.65002C11.1504 8.46002 11.2204 8.27002 11.3704 8.12002C11.6604 7.82002 12.1304 7.82002 12.4304 8.12002Z" fill="#fff"/>
</svg>
