<svg width="22" height="23" viewBox="0 0 22 23" fill="none" xmlns="http://www.w3.org/2000/svg">
<path opacity="0.5" d="M10.5417 19.3177C15.3511 19.3177 19.25 15.4188 19.25 10.6093C19.25 5.79985 15.3511 1.901 10.5417 1.901C5.73218 1.901 1.83333 5.79985 1.83333 10.6093C1.83333 15.4188 5.73218 19.3177 10.5417 19.3177Z" fill="#fff"/>
<path d="M19.525 20.2343C19.36 20.2343 19.195 20.1701 19.0758 20.0509L17.3708 18.3459C17.1233 18.0984 17.1233 17.6951 17.3708 17.4384C17.6183 17.1909 18.0217 17.1909 18.2783 17.4384L19.9833 19.1434C20.2308 19.3909 20.2308 19.7943 19.9833 20.0509C19.855 20.1701 19.69 20.2343 19.525 20.2343Z" fill="#fff"/>
</svg>
